<svg version="1.1" id="Layer_1" xmlns="http://www.w3.org/2000/svg" xmlns:xlink="http://www.w3.org/1999/xlink" x="0px" y="0px"
	 width="100%" viewBox="0 0 393 781" enable-background="new 0 0 393 781" xml:space="preserve">
<path fill="none" opacity="1.000000" stroke="#000000" stroke-linecap="round" stroke-linejoin="round" stroke-width="3.000000"
	d="
M261.500000,710.500000 
	C259.535278,709.961060 260.399323,708.014099 260.177917,706.962524 
	C259.637115,704.394165 260.601105,701.549500 256.528534,700.836914 
	C255.165817,700.598511 253.738373,698.266846 254.576950,696.537292 
	C256.771606,692.010864 254.544052,686.982483 256.613556,682.239990 
	C255.263458,681.215942 253.853119,680.146118 252.523529,679.137573 
	C252.227844,673.040771 254.940079,669.071167 262.155792,667.792908 
	C257.851746,665.222290 255.288055,663.372131 254.299759,659.399414 
	C261.041443,655.558533 257.867371,649.500671 256.924805,644.012939 
	C255.722977,637.015747 256.194092,630.006897 255.989838,623.000305 
	C255.945450,621.477844 256.668518,620.359253 258.013794,620.062500 
	C259.474182,619.740417 261.779022,620.871277 261.450806,618.005615 
	C261.124390,615.155579 263.140747,611.330994 259.937897,609.615967 
	C251.773071,605.244019 252.625397,597.507141 252.714645,590.502747 
	C252.780273,585.354126 252.662338,580.160339 253.013367,575.000916 
	C253.122208,573.401123 252.654678,572.155212 251.520798,570.979919 
	C247.650986,566.968933 245.534195,563.357666 248.077240,556.835144 
	C250.271683,551.206909 249.839310,544.295715 250.936188,537.988892 
	C251.374878,535.466553 251.134995,533.010620 252.326080,530.420044 
	C253.913971,526.966431 253.766891,523.356079 251.717392,519.387695 
	C249.159546,514.435120 248.035889,509.305237 249.971130,502.841644 
	C251.684021,497.120819 255.468124,491.453156 254.463806,485.005646 
	C252.965057,475.384247 253.592072,465.636505 252.461060,456.004578 
	C252.384766,455.354889 251.062988,455.262634 251.937927,453.958344 
	C255.182770,449.121246 254.779037,443.580811 255.352692,438.036499 
	C255.884689,432.894745 256.912445,427.759155 257.099365,422.503540 
	C257.167999,420.573975 259.058472,418.252350 260.927887,419.150177 
	C266.170990,421.668213 270.406769,418.153870 274.956146,417.273376 
	C278.106323,416.663696 279.821045,417.248291 281.283447,419.378754 
	C284.463318,418.385559 287.425812,417.106934 290.515472,416.593140 
	C293.695007,416.064484 295.132080,414.331940 296.029236,411.509308 
	C297.600067,406.567261 298.149445,401.100189 300.324921,396.659149 
	C302.569366,392.077271 301.640472,387.885681 302.030090,383.502686 
	C302.255798,380.963593 301.599274,378.668671 300.474884,376.513092 
	C298.294830,372.333710 299.383240,368.235321 303.504913,366.009094 
	C309.116333,362.978271 311.569916,357.802795 312.953949,351.989044 
	C313.527893,349.578156 315.395233,347.634216 318.000000,347.500031 
	C323.415771,347.221039 325.051849,344.630890 323.592896,339.473724 
	C323.048553,337.549530 321.482483,336.206177 321.423462,334.002045 
	C321.299896,329.386963 323.251068,326.178436 329.032776,324.621765 
	C333.705658,323.363617 338.077606,319.579437 343.551453,322.400146 
	C344.947754,323.119690 345.686493,321.152740 346.540436,320.030792 
	C349.205322,316.529510 351.332672,312.664581 354.430573,309.433441 
	C357.215668,306.528564 355.988068,302.522827 355.913513,299.001831 
	C355.848663,295.939636 356.394745,293.899109 359.454681,292.407074 
	C363.458893,290.454529 363.918457,282.928192 360.491028,280.010529 
	C358.685699,278.473663 356.894775,277.056091 355.410065,275.067139 
	C351.500488,269.829956 350.920929,266.520905 354.018066,261.010162 
	C355.275604,258.772583 357.127014,257.112640 357.334137,254.022400 
	C357.443176,252.395676 360.905273,250.844223 363.031403,249.551666 
	C364.598907,248.598740 366.018707,249.415512 367.554779,250.415894 
	C369.655304,251.783875 372.139709,252.562439 374.849365,253.766953 
	C376.374176,250.791397 377.911774,247.994629 377.517883,244.497986 
	C377.228394,241.927795 378.010071,239.476456 379.550537,237.540207 
	C382.594849,233.713715 383.171387,229.478271 381.907562,225.026245 
	C381.414215,223.288300 381.663086,221.664566 381.534790,219.997330 
	C381.436646,218.722458 381.733948,217.267334 379.996460,217.025345 
	C376.131500,216.487045 374.522949,213.841980 373.484924,210.504684 
	C372.706604,208.002213 369.872498,207.460846 368.555817,205.541321 
	C367.954742,204.082306 368.930634,203.052109 369.526703,202.015350 
	C373.132812,195.743103 372.170227,189.398499 370.015533,182.994766 
	C369.798798,182.350647 370.262634,181.578491 369.509613,180.987747 
	C364.601379,177.137238 366.515503,172.244614 367.469513,167.067307 
	C361.553070,166.674957 359.642517,161.351562 356.540619,157.467575 
	C350.238068,149.576080 344.121338,141.534180 338.040192,133.469696 
	C336.892700,131.947968 335.538910,130.572327 336.400848,127.967194 
	C339.855957,117.524406 344.791748,107.839020 350.265320,97.748909 
	C348.233154,95.677895 345.882538,93.085472 344.007111,89.779617 
	C342.138611,86.485985 340.449493,81.321213 335.965302,80.130707 
	C330.171967,78.592621 325.554810,73.550720 319.002045,74.513893 
	C316.692688,74.853340 315.098785,74.272957 313.955536,72.022591 
	C311.886108,67.949135 308.209991,64.619072 308.482086,59.499046 
	C308.592560,57.419964 306.438721,55.737068 305.492859,55.704029 
	C301.501862,55.564629 300.951233,52.108631 298.978973,50.019867 
	C296.229156,47.107662 293.805511,43.190155 290.385345,41.777580 
	C285.678741,39.833652 283.375885,36.412369 281.619934,32.446888 
	C280.209198,29.261049 278.477051,27.761517 274.997375,27.951799 
	C272.506256,28.088026 269.674744,26.278360 269.726349,24.506594 
	C269.903290,18.431458 264.131165,18.190525 261.412994,15.075923 
	C260.144531,13.622434 252.694489,15.571208 250.504639,17.505253 
	C249.204849,18.653223 248.380554,20.201107 245.942291,19.131542 
	C244.071182,18.310755 242.752930,20.475281 242.626434,22.010418 
	C242.468536,23.927082 240.995956,24.924128 240.835342,27.042540 
	C234.168884,23.791140 228.318069,29.967651 221.572144,27.422380 
	C218.780716,32.218357 213.337234,30.570555 208.959442,31.862555 
	C205.895889,32.766685 205.026871,33.381893 205.270081,37.015388 
	C205.704041,43.498505 207.691635,49.457310 209.619751,55.461544 
	C210.222137,57.337345 211.401047,59.346695 213.971573,60.097340 
	C216.698730,60.893719 216.884064,63.440807 214.431091,64.304214 
	C211.971909,65.169815 210.537140,68.142204 207.488785,67.420410 
	C208.211060,77.864388 205.046906,86.898178 197.945908,94.449127 
	C196.738068,95.733490 196.250061,96.958405 196.528488,98.494835 
	C197.040207,101.318718 195.901627,103.120361 193.511261,104.519249 
	C181.752747,111.400528 172.898636,121.479172 164.002151,131.501907 
	C162.635956,133.041046 161.332977,133.335876 158.988617,133.206757 
	C149.837814,132.702744 140.511734,129.406082 131.500000,134.000000 
	C125.832489,132.412323 120.977097,134.886505 115.976891,136.943832 
	C113.854279,137.817169 112.340538,136.417343 111.514198,134.493896 
	C109.105377,128.887039 103.654533,128.806931 98.974358,128.196625 
	C95.822639,127.785614 92.536209,128.924072 89.371109,130.780212 
	C86.270844,132.598358 90.508125,136.003860 87.014183,137.047485 
	C84.923218,137.672043 82.839935,138.419205 81.460503,140.473480 
	C79.781937,142.973236 82.991013,145.621628 80.999878,147.995316 
	C79.000000,148.374420 77.000000,146.486343 75.000000,148.000000 
"/>
<path fill="none" opacity="1.000000" stroke="#000000" stroke-linecap="round" stroke-linejoin="round" stroke-width="3.000000"
	d="
M163.000000,134.000000 
	C171.000000,148.166672 178.553528,162.613831 187.199051,176.374954 
	C191.182419,182.715271 192.107529,188.929520 192.095520,196.000168 
	C192.072296,209.664597 191.523651,223.335724 192.384201,237.007294 
	C192.571869,239.988785 192.046173,243.243408 188.552902,245.099564 
	C186.432602,246.226151 184.673737,248.192261 183.042618,250.037674 
	C181.230850,252.087494 181.323654,258.124329 183.561066,259.392242 
	C190.755646,263.469299 190.439041,271.197693 192.932266,277.526672 
	C193.851959,279.861359 194.145386,282.481537 194.465668,285.004364 
	C194.937225,288.718811 192.785507,291.790985 188.997147,291.883636 
	C184.830475,291.985565 181.046555,293.541992 177.014786,294.105774 
	C171.353653,294.897430 169.899048,298.098175 172.566238,302.963684 
	C173.070618,303.883759 172.581482,304.333405 172.581558,305.000000 
	C172.582184,311.297882 171.682022,317.360962 170.253357,323.558411 
	C168.786194,329.922882 173.013535,335.387695 177.132187,339.878784 
	C179.905319,342.902710 180.416565,345.888275 179.998947,349.499878 
	C178.939728,358.660095 177.428223,367.763733 176.923889,376.995850 
	C176.760193,379.992401 175.605896,382.056610 171.504166,382.162079 
	C162.229996,382.400604 158.322906,385.958038 157.639923,395.010559 
	C157.118408,401.923035 156.798874,409.087158 164.923676,413.152527 
	C169.030304,415.207367 167.289825,420.142670 166.764587,423.462769 
	C166.105515,427.628876 164.935242,431.717102 165.001175,435.999969 
	C165.079269,441.075165 167.174179,444.048187 172.010513,445.464050 
	C174.953461,446.325623 178.011810,446.784760 180.997345,447.510925 
	C185.981888,448.723206 186.862442,450.133057 185.467072,454.990540 
	C184.853058,457.128021 184.983795,458.961029 185.936569,461.029236 
	C187.667328,464.786163 188.018860,468.993469 187.844955,472.993256 
	C187.693848,476.469055 189.236374,480.247711 186.608505,483.585419 
	C186.164932,484.148834 187.149841,485.836914 187.590073,487.420105 
	C183.194839,491.981934 177.312592,490.486816 172.003174,490.363434 
	C167.225464,490.252411 163.270584,487.480255 160.012634,483.988220 
	C157.823029,481.641235 155.352036,480.317688 151.997604,480.424652 
	C149.954453,480.489838 148.001892,479.875427 146.453156,478.039520 
	C142.969742,473.910156 138.419815,474.221893 134.025940,476.061920 
	C128.832947,478.236542 123.512184,478.811340 118.000000,478.500000 
"/>
<path fill="none" opacity="1.000000" stroke="#000000" stroke-linecap="round" stroke-linejoin="round" stroke-width="3.000000"
	d="
M37.500000,185.500000 
	C35.497826,185.819717 33.495651,186.139435 31.594059,186.443085 
	C31.550076,190.531952 26.220243,194.115570 30.799908,198.807373 
	C27.661516,200.849854 26.258564,203.800354 27.023302,207.495178 
	C27.598991,210.276642 25.673910,211.704391 23.961605,212.947098 
	C18.861820,216.648300 17.513449,221.240814 18.261839,227.528351 
	C18.808474,232.120850 19.833269,237.106506 15.807343,241.765579 
	C13.993388,243.864807 15.872423,248.880417 15.416066,252.489380 
	C14.658816,258.477875 17.145512,261.968079 21.879234,265.655060 
	C41.513920,280.947937 63.119690,293.155975 83.973297,306.541595 
	C85.040352,307.226532 86.017967,307.000397 86.959480,307.195526 
	C91.015930,308.036224 95.185608,308.120880 99.078102,310.364502 
	C105.227928,313.909180 120.516441,311.490509 125.427666,306.429810 
	C128.685684,303.072632 132.593185,300.603760 136.110016,297.630096 
	C138.424255,295.673309 141.430679,294.067383 145.076004,296.380188 
	C147.636032,298.004456 151.000168,296.846710 154.000824,296.981506 
	C159.497452,297.228363 165.022659,296.585693 170.500000,297.500000 
"/>
<path fill="none" opacity="1.000000" stroke="#000000" stroke-linecap="round" stroke-linejoin="round" stroke-width="3.000000"
	d="
M85.500000,308.000000 
	C85.334877,313.666718 84.494698,319.578796 85.331879,324.948242 
	C86.621719,333.221008 85.305183,341.346680 85.978165,349.501801 
	C86.160698,351.713806 86.370377,354.217163 84.931099,355.942535 
	C81.971985,359.489868 82.643639,362.856567 84.419685,366.538727 
	C84.747383,367.218140 84.940247,368.466553 85.493675,368.421783 
	C90.385422,368.026337 88.916634,371.636688 88.952301,374.000732 
	C89.063072,381.343353 89.330315,388.275543 95.893303,393.630768 
	C100.795090,397.630493 102.637810,405.069550 110.000000,406.500000 
	C110.359032,411.044861 114.524963,413.767242 115.144180,418.481049 
	C117.743797,438.270691 116.762344,458.171356 117.201263,478.006622 
	C117.315186,483.154846 119.147690,486.659393 121.637802,490.795135 
	C118.724709,493.279022 117.091988,496.709137 116.601303,500.513062 
	C116.392448,502.132172 114.855171,504.210480 117.897339,505.708496 
	C119.391663,506.444305 118.451866,509.496796 118.484627,511.500244 
	C118.814331,531.665344 117.769440,551.847961 119.050621,571.996765 
	C119.580872,580.336121 118.599686,588.645203 119.412300,597.008545 
	C121.869095,622.293518 119.753304,647.672119 120.691101,673.064941 
	C117.057083,675.140808 113.030441,673.000977 109.531425,674.604980 
	C109.134705,678.799438 110.005295,682.537842 113.981003,685.030273 
	C114.966606,685.648193 115.879097,686.544128 115.503944,688.001038 
	C114.254906,692.851318 115.495178,697.388916 116.877686,702.036377 
	C117.511940,704.168518 117.489502,706.756042 115.036980,708.550537 
	C112.619919,710.319031 112.700729,712.562500 115.019196,714.476746 
	C116.429321,715.640930 116.538635,716.740417 116.096596,718.523926 
	C115.407837,721.302856 117.470718,723.500732 119.555931,724.365051 
	C124.064110,726.233765 126.991165,728.745605 126.509193,734.000854 
	C126.443588,734.716248 126.549332,735.117432 127.464828,735.570984 
	C133.584915,738.602844 135.295670,744.375977 136.545059,750.490784 
	C137.271988,754.048462 138.449066,757.514160 139.530197,761.404907 
	C131.767365,764.842102 121.758781,762.934448 115.500000,770.500000 
"/>
<path fill="none" opacity="1.000000" stroke="#000000" stroke-linecap="round" stroke-linejoin="round" stroke-width="3.000000"
	d="
M214.500000,673.000000 
	C214.037613,672.307739 213.575211,671.615479 212.976166,670.718567 
	C210.617676,672.605652 208.382202,674.394226 206.624420,675.800659 
	C203.985275,676.696106 204.017242,673.298828 201.355545,674.223999 
	C198.056549,679.159973 191.871201,678.966431 186.468124,679.791199 
	C181.339386,680.574036 176.035980,681.200562 171.077637,682.338318 
	C166.682236,683.346924 165.278580,681.057861 162.996979,679.003357 
	C158.040894,674.540710 155.219376,668.287231 150.081238,663.904785 
	C147.748856,661.915405 146.522369,658.637390 146.599884,655.502441 
	C146.690506,651.836731 145.389542,648.939575 142.964417,646.535889 
	C140.098267,643.695007 138.596252,639.908997 135.147705,637.304443 
	C131.489731,634.541687 132.099945,629.012024 130.048096,624.975525 
	C127.955742,620.859375 126.500435,616.435120 124.041092,612.474487 
	C123.384140,611.416443 122.922440,610.430298 121.500000,610.500000 
"/>
<path fill="none" opacity="1.000000" stroke="#000000" stroke-linecap="round" stroke-linejoin="round" stroke-width="3.000000"
	d="
M252.000000,591.500000 
	C243.852310,592.596252 235.665787,591.777283 227.499420,591.975952 
	C222.241653,592.103882 220.576721,592.947754 221.202042,597.974854 
	C221.856262,603.234253 219.357483,606.609436 216.443985,609.951172 
	C213.443237,613.392944 212.416443,616.713562 215.531845,620.473633 
	C216.244461,621.333679 216.076233,622.202332 215.961761,622.994446 
	C214.949738,629.998596 218.798691,635.972107 220.060959,642.488220 
	C220.302917,643.737183 221.076340,645.534790 222.040939,645.888245 
	C229.259079,648.532532 227.145599,655.416626 229.057571,660.478271 
	C230.549118,664.426941 231.582855,668.302124 230.679871,673.000000 
	C226.848053,673.000000 223.107193,673.439087 219.516373,672.892456 
	C214.673584,672.155273 212.993378,675.310974 210.982315,678.488831 
	C208.952972,681.695496 210.324966,684.349060 212.554947,686.441467 
	C215.737289,689.427612 216.094330,692.984863 216.052292,697.000549 
	C215.931747,708.519531 215.717590,720.055786 217.175339,731.450073 
	C219.119720,732.410767 220.429001,730.527710 222.427216,731.157166 
	C223.719208,736.461609 223.391174,741.795288 221.000000,747.000000 
"/>
<path fill="none" opacity="1.000000" stroke="#000000" stroke-linecap="round" stroke-linejoin="round" stroke-width="3.000000"
	d="
M381.000000,223.500000 
	C374.618683,224.117493 368.893158,227.285736 362.523621,228.170105 
	C360.045746,228.514130 357.960999,228.609268 355.467255,228.198929 
	C352.439087,227.700653 349.192291,227.491684 345.922974,228.808792 
	C344.012512,229.578445 341.520203,229.815201 338.949310,229.218307 
	C336.182343,228.575897 333.008118,228.557709 329.987335,229.457489 
	C322.956848,231.551590 315.331116,230.706070 308.436523,233.861328 
	C307.094452,234.475510 305.296387,234.655350 304.032532,235.546143 
	C300.653107,237.928024 296.921112,238.159683 292.998901,238.034561 
	C289.769135,237.931519 286.623077,237.425903 283.394379,239.319946 
	C281.470673,240.448410 278.611877,240.134018 275.970612,239.665878 
	C272.931030,239.127136 269.597107,238.511917 266.643463,240.188934 
	C264.387756,238.778915 265.262787,234.473892 261.503082,235.021072 
	C256.674072,235.723877 251.322845,233.043121 247.020676,237.022354 
	C243.450806,240.324219 239.407745,243.108765 234.545975,241.825775 
	C230.588562,240.781433 226.052963,241.645660 222.780121,237.160446 
	C219.731598,232.982651 211.922958,234.297424 208.359589,238.672394 
	C203.477844,236.506760 198.210876,237.043137 193.000000,237.000000 
"/>
<path fill="none" opacity="1.000000" stroke="#000000" stroke-linecap="round" stroke-linejoin="round" stroke-width="3.000000"
	d="
M186.500000,454.500000 
	C188.942245,455.533020 191.504181,454.960663 194.000092,454.968262 
	C212.999924,455.026154 232.000000,455.000000 251.000000,455.000000 
"/>
<path fill="none" opacity="1.000000" stroke="#000000" stroke-linecap="round" stroke-linejoin="round" stroke-width="3.000000"
	d="
M213.000000,617.000000 
	C211.396790,616.198730 209.666290,616.661682 208.002808,616.474976 
	C206.867249,616.347412 205.745407,617.005554 204.865051,615.061096 
	C203.070160,611.096680 198.570877,609.786926 195.472961,607.030396 
	C191.955978,603.901062 188.019714,602.010437 182.971558,602.823364 
	C181.849884,603.004028 180.369034,600.954102 178.818970,599.748718 
	C176.434845,602.904785 173.036942,602.937622 169.503754,603.088135 
	C166.801605,603.203247 164.927551,602.295654 164.048096,599.981750 
	C161.614914,593.579895 153.900314,591.302795 147.502258,594.005371 
	C143.387665,595.743408 139.213730,595.057129 134.996475,594.528137 
	C129.955093,593.895874 124.879105,593.353271 120.000000,595.500000 
"/>
<path fill="none" opacity="1.000000" stroke="#000000" stroke-linecap="round" stroke-linejoin="round" stroke-width="3.000000"
	d="
M225.000000,674.000000 
	C224.923172,677.209839 226.255463,680.208252 226.143402,683.504883 
	C226.053711,686.143616 228.169708,687.839355 231.000671,687.987000 
	C234.270813,688.157654 235.107147,689.963318 235.051285,693.000916 
	C234.901093,701.168213 235.000000,709.340149 235.000000,718.000000 
	C238.145950,718.000000 240.856277,718.265869 243.491974,717.935852 
	C247.169678,717.475281 248.520035,719.358398 248.996094,722.500610 
	C249.349152,724.830933 249.823639,727.158020 249.953247,729.502563 
	C250.069031,731.596985 251.435440,732.064575 253.000000,732.500000 
"/>
<path fill="none" opacity="1.000000" stroke="#000000" stroke-linecap="round" stroke-linejoin="round" stroke-width="3.000000"
	d="
M174.500000,683.000000 
	C174.666656,683.500000 175.134232,684.209106 174.954208,684.468201 
	C172.739960,687.654663 172.734604,691.796204 170.821381,694.889526 
	C169.089813,697.689148 167.549515,700.096252 167.928116,703.507996 
	C168.051956,704.623962 167.614258,706.033447 166.950729,706.964905 
	C164.259079,710.743408 166.031631,715.548401 163.360611,719.730347 
	C161.566055,722.539917 162.839920,727.511841 163.905624,731.525085 
	C164.838852,735.039307 162.320389,738.201294 160.774490,740.869324 
	C158.129028,745.435303 157.905365,749.643555 160.111679,753.942688 
	C161.295258,756.249023 161.482269,758.732544 162.500000,761.000000 
"/>
<path fill="none" opacity="1.000000" stroke="#000000" stroke-linecap="round" stroke-linejoin="round" stroke-width="3.000000"
	d="
M203.500000,755.500000 
	C196.994949,757.577454 190.136505,757.288513 183.498184,758.489990 
	C167.670486,761.354431 151.831207,764.154846 136.001404,767.007751 
	C131.658905,767.790283 127.345665,768.741943 122.992676,769.455383 
	C121.639290,769.677185 120.083595,769.832275 119.000000,768.500000 
"/>
<path fill="none" opacity="1.000000" stroke="#000000" stroke-linecap="round" stroke-linejoin="round" stroke-width="3.000000"
	d="
M166.500000,706.500000 
	C161.339569,706.292053 157.744904,702.688538 153.513550,700.474121 
	C152.915634,700.161194 152.072357,699.498657 152.073929,699.000244 
	C152.080811,696.826904 152.029785,694.285706 149.492035,694.128784 
	C145.682892,693.893311 141.327850,692.733276 138.081818,695.111633 
	C131.834351,699.689331 124.308388,698.914734 117.500000,701.000000 
"/>
<path fill="none" opacity="1.000000" stroke="#000000" stroke-linecap="round" stroke-linejoin="round" stroke-width="3.000000"
	d="
M260.000000,710.500000 
	C255.191162,712.262268 254.752731,717.480042 255.378952,720.419250 
	C256.600555,726.152893 254.037704,730.899841 253.218994,735.954468 
	C252.456024,740.665100 253.246323,745.413269 252.132782,750.354370 
	C236.190659,752.189941 220.583496,755.980530 204.512833,756.205933 
	C203.010788,753.471008 204.975967,751.601440 206.542557,751.146545 
	C212.220398,749.497742 217.816406,746.890747 223.997314,748.014771 
	C226.703201,748.506897 229.303925,749.261414 230.000000,752.500000 
"/>
<path fill="none" opacity="1.000000" stroke="#000000" stroke-linecap="round" stroke-linejoin="round" stroke-width="3.000000"
	d="
M72.500000,147.000000 
	C75.596237,148.057129 75.598885,150.952042 74.823708,152.930939 
	C73.908089,155.268372 71.755463,153.412491 69.980270,153.119568 
	C66.919647,152.614548 63.751812,153.441620 60.906311,151.114563 
	C59.678619,150.110550 56.359962,154.240997 57.617771,155.368637 
	C61.412937,158.771042 59.077663,162.788910 59.500000,166.500000 
"/>
<path fill="none" opacity="1.000000" stroke="#000000" stroke-linecap="round" stroke-linejoin="round" stroke-width="3.000000"
	d="
M58.500000,163.500000 
	C54.326496,163.739746 52.119740,166.929611 48.898705,169.422821 
	C52.079857,172.565140 55.400406,175.277588 54.500000,180.000000 
"/>
<path fill="none" opacity="1.000000" stroke="#000000" stroke-linecap="round" stroke-linejoin="round" stroke-width="3.000000"
	d="
M36.500000,185.000000 
	C34.820114,181.478546 37.090645,178.802383 38.555252,176.029175 
	C39.099628,174.998428 40.271420,174.414505 41.503162,175.496399 
	C45.075096,178.633789 49.872547,178.394043 53.980259,180.048996 
	C54.296967,180.176590 54.333336,181.000000 54.500000,181.500000 
"/>
</svg>